<svg width="20" height="19" viewBox="0 0 20 19" fill="none" xmlns="http://www.w3.org/2000/svg">
<path d="M9.99121 18.7422C14.9746 18.7422 19.0879 14.6289 19.0879 9.6543C19.0879 4.67969 14.9658 0.566406 9.98242 0.566406C5.00781 0.566406 0.90332 4.67969 0.90332 9.6543C0.90332 14.6289 5.0166 18.7422 9.99121 18.7422ZM9.99121 14.2773C9.5166 14.2773 9.16504 13.9434 9.16504 13.4688V9.19727L9.25293 7.31641L8.43555 8.33594L7.4248 9.39941C7.28418 9.54883 7.08203 9.63672 6.8623 9.63672C6.42285 9.63672 6.09766 9.32031 6.09766 8.88965C6.09766 8.66992 6.16797 8.49414 6.31738 8.33594L9.34082 5.27734C9.54297 5.05762 9.74512 4.96094 9.99121 4.96094C10.2549 4.96094 10.457 5.06641 10.6592 5.27734L13.665 8.33594C13.8232 8.49414 13.8936 8.66992 13.8936 8.88965C13.8936 9.32031 13.5684 9.63672 13.1289 9.63672C12.9092 9.63672 12.707 9.55762 12.5664 9.39941L11.5645 8.34473L10.7383 7.30762L10.8262 9.19727V13.4688C10.8262 13.9434 10.4746 14.2773 9.99121 14.2773Z" fill="#1C1C1E"/>
</svg>
