<svg width="20" height="19" viewBox="0 0 19 19" fill="none" xmlns="http://www.w3.org/2000/svg">
<path d="M18.18 9.09026C18.18 13.6812 14.7766 17.4765 10.3557 18.0926C9.94216 18.1502 9.51921 18.18 9.08999 18.18C8.5943 18.18 8.10804 18.1402 7.6338 18.0638C3.30603 17.3671 0 13.6142 0 9.08974C0 4.0696 4.06971 0 9.08999 0C14.1103 0 18.18 4.0696 18.18 9.08974V9.09026Z" fill="#1C1C1B"/>
<path d="M13.5376 6.5465V8.28321C13.2335 8.2539 12.8398 8.18481 12.4028 8.02464C11.8327 7.8158 11.4082 7.53001 11.1308 7.3086V10.8197L11.124 10.8087C11.1287 10.8783 11.1308 10.949 11.1308 11.0207C11.1308 12.7647 9.7123 14.1837 7.96769 14.1837C6.22307 14.1837 4.80457 12.7642 4.80457 11.0207C4.80457 9.27719 6.22307 7.85715 7.96769 7.85715C8.13833 7.85715 8.30583 7.87075 8.46967 7.89693V9.60904C8.31211 9.55251 8.14356 9.52215 7.96769 9.52215C7.14171 9.52215 6.4691 10.1942 6.4691 11.0207C6.4691 11.8472 7.14171 12.5193 7.96769 12.5193C8.79367 12.5193 9.46629 11.8467 9.46629 11.0207C9.46629 10.9898 9.46577 10.9589 9.46367 10.9281V4.10474H11.1999C11.2062 4.25182 11.2125 4.39995 11.2182 4.54703C11.2298 4.83648 11.3329 5.11442 11.5124 5.3421C11.7233 5.60957 12.0343 5.92049 12.4719 6.16859C12.8812 6.40046 13.2654 6.49991 13.5376 6.54702V6.5465Z" fill="white"/>
</svg>
