<svg width="20" height="19" viewBox="0 0 20 19" fill="none" xmlns="http://www.w3.org/2000/svg">
<path d="M9.99121 18.7598C14.9746 18.7598 19.0879 14.6465 19.0879 9.66309C19.0879 4.68848 14.9658 0.575195 9.98242 0.575195C5.00781 0.575195 0.90332 4.68848 0.90332 9.66309C0.90332 14.6465 5.0166 18.7598 9.99121 18.7598ZM9.99121 9.35547C8.70801 9.35547 7.6709 8.27441 7.6709 6.82422C7.6709 5.47949 8.70801 4.35449 9.99121 4.35449C11.2656 4.35449 12.3027 5.47949 12.3027 6.82422C12.3027 8.27441 11.2656 9.36426 9.99121 9.35547ZM5.96582 14.2422C5.55273 14.2422 5.35938 13.9697 5.35938 13.6006C5.35938 12.6162 6.81836 10.0762 9.99121 10.0762C13.1553 10.0762 14.6143 12.6162 14.6143 13.6006C14.6143 13.9697 14.4209 14.2422 14.0166 14.2422H5.96582Z" fill="#1C1C1E"/>
</svg>
