<svg width="20" height="20" viewBox="0 0 20 20" fill="none" xmlns="http://www.w3.org/2000/svg">
<path d="M5.52637 19.5156C5.89551 19.5156 6.16797 19.3398 6.60742 18.9443L9.85059 16.0176L15.5986 16.0264C18.2441 16.0264 19.7295 14.4971 19.7295 11.8867V5.05762C19.7295 2.44727 18.2441 0.917969 15.5986 0.917969H4.39258C1.75586 0.917969 0.261719 2.44727 0.261719 5.05762V11.8867C0.261719 14.5059 1.7998 16.0176 4.33105 16.0176H4.68262V18.5664C4.68262 19.1465 4.99023 19.5156 5.52637 19.5156ZM5.76367 8.47656C5.76367 7.95801 6.12402 7.59766 6.63379 7.59766H9.13867V5.09277C9.13867 4.58301 9.49023 4.21387 10 4.21387C10.5098 4.21387 10.8789 4.58301 10.8789 5.09277V7.59766H13.3838C13.8848 7.59766 14.2539 7.95801 14.2539 8.47656C14.2539 8.97754 13.8848 9.3291 13.3838 9.3291H10.8789V11.8428C10.8789 12.3438 10.5098 12.7129 10 12.7129C9.49023 12.7129 9.13867 12.3438 9.13867 11.8428V9.3291H6.63379C6.12402 9.3291 5.76367 8.97754 5.76367 8.47656Z" fill="#1C1C1E"/>
</svg>
